TITLE ""
FILE "DISC1Track12.mp3" MP3
  TRACK 01 AUDIO
    TITLE "DISC1Track12_01"
    INDEX 01 00:00:00
  TRACK 02 AUDIO
    TITLE "DISC1Track12_02"
    INDEX 01 00:01:18
  TRACK 03 AUDIO
    TITLE "DISC1Track12_03"
    INDEX 01 00:01:35
  TRACK 04 AUDIO
    TITLE "DISC1Track12_04"
    INDEX 01 00:05:21
  TRACK 05 AUDIO
    TITLE "DISC1Track12_05"
    INDEX 01 00:09:01
  TRACK 06 AUDIO
    TITLE "DISC1Track12_06"
    INDEX 01 00:12:31
  TRACK 07 AUDIO
    TITLE "DISC1Track12_07"
    INDEX 01 00:12:47
  TRACK 08 AUDIO
    TITLE "DISC1Track12_08"
    INDEX 01 00:15:22
  TRACK 09 AUDIO
    TITLE "DISC1Track12_09"
    INDEX 01 00:18:12
  TRACK 10 AUDIO
    TITLE "DISC1Track12_10"
    INDEX 01 00:20:56
  TRACK 11 AUDIO
    TITLE "DISC1Track12_11"
    INDEX 01 00:20:72
  TRACK 12 AUDIO
    TITLE "DISC1Track12_12"
    INDEX 01 00:24:17
  TRACK 13 AUDIO
    TITLE "DISC1Track12_13"
    INDEX 01 00:27:48
  TRACK 14 AUDIO
    TITLE "DISC1Track12_14"
    INDEX 01 00:30:47
  TRACK 15 AUDIO
    TITLE "DISC1Track12_15"
    INDEX 01 00:30:62
  TRACK 16 AUDIO
    TITLE "DISC1Track12_16"
    INDEX 01 00:34:05
  TRACK 17 AUDIO
    TITLE "DISC1Track12_17"
    INDEX 01 00:37:64
  TRACK 18 AUDIO
    TITLE "DISC1Track12_18"
    INDEX 01 00:41:15
  TRACK 19 AUDIO
    TITLE "DISC1Track12_19"
    INDEX 01 00:41:29
  TRACK 20 AUDIO
    TITLE "DISC1Track12_20"
    INDEX 01 00:44:72
  TRACK 21 AUDIO
    TITLE "DISC1Track12_21"
    INDEX 01 00:47:24
  TRACK 22 AUDIO
    TITLE "DISC1Track12_22"
    INDEX 01 00:49:26
  TRACK 23 AUDIO
    TITLE "DISC1Track12_23"
    INDEX 01 00:49:42
  TRACK 24 AUDIO
    TITLE "DISC1Track12_24"
    INDEX 01 00:52:44
  TRACK 25 AUDIO
    TITLE "DISC1Track12_25"
    INDEX 01 00:55:66
  TRACK 26 AUDIO
    TITLE "DISC1Track12_26"
    INDEX 01 00:58:67
  TRACK 27 AUDIO
    TITLE "DISC1Track12_27"
    INDEX 01 00:59:07
  TRACK 28 AUDIO
    TITLE "DISC1Track12_28"
    INDEX 01 01:02:21
  TRACK 29 AUDIO
    TITLE "DISC1Track12_29"
    INDEX 01 01:05:45
  TRACK 30 AUDIO
    TITLE "DISC1Track12_30"
    INDEX 01 01:08:43
  TRACK 31 AUDIO
    TITLE "DISC1Track12_31"
    INDEX 01 01:08:55
  TRACK 32 AUDIO
    TITLE "DISC1Track12_32"
    INDEX 01 01:12:06
  TRACK 33 AUDIO
    TITLE "DISC1Track12_33"
    INDEX 01 01:15:28
  TRACK 34 AUDIO
    TITLE "DISC1Track12_34"
    INDEX 01 01:18:16
  TRACK 35 AUDIO
    TITLE "DISC1Track12_35"
    INDEX 01 01:18:30
  TRACK 36 AUDIO
    TITLE "DISC1Track12_36"
    INDEX 01 01:21:52
  TRACK 37 AUDIO
    TITLE "DISC1Track12_37"
    INDEX 01 01:24:25
  TRACK 38 AUDIO
    TITLE "DISC1Track12_38"
    INDEX 01 01:26:47
  TRACK 39 AUDIO
    TITLE "DISC1Track12_39"
    INDEX 01 01:26:65
  TRACK 40 AUDIO
    TITLE "DISC1Track12_40"
    INDEX 01 01:30:27
  TRACK 41 AUDIO
    TITLE "DISC1Track12_41"
    INDEX 01 01:34:21
  TRACK 42 AUDIO
    TITLE "DISC1Track12_42"
    INDEX 01 01:37:55
